<?xml version='1.0' encoding='utf-8'?>
<svg xmlns="http://www.w3.org/2000/svg" width="1600" height="1020" viewBox="0 0 1600 1020" role="img" aria-labelledby="title desc">
  <title id="title">系统架构</title>
  <desc id="desc">任务运行分别写入 Redis、PostgreSQL 与文件存储；模型、沙箱与外部服务在右侧；沙箱画面经 API 单独转发到页面。</desc>
  <style>text{font-family:"PingFang SC","Microsoft YaHei",Arial,sans-serif;letter-spacing:0}</style>
  <defs>
    <marker id="a-20312f" markerWidth="20" markerHeight="20" refX="18" refY="10" orient="auto-start-reverse" markerUnits="userSpaceOnUse">
      <path d="M2 2L19 10L2 18Z" fill="#20312f" />
    </marker>
    <marker id="b-20312f" markerWidth="14" markerHeight="14" refX="12" refY="7" orient="auto-start-reverse" markerUnits="userSpaceOnUse">
      <path d="M2 2L13 7L2 12Z" fill="#20312f" />
    </marker>
    <marker id="a-3268bf" markerWidth="20" markerHeight="20" refX="18" refY="10" orient="auto-start-reverse" markerUnits="userSpaceOnUse">
      <path d="M2 2L19 10L2 18Z" fill="#3268bf" />
    </marker>
    <marker id="b-3268bf" markerWidth="14" markerHeight="14" refX="12" refY="7" orient="auto-start-reverse" markerUnits="userSpaceOnUse">
      <path d="M2 2L13 7L2 12Z" fill="#3268bf" />
    </marker>
    <marker id="a-177b65" markerWidth="20" markerHeight="20" refX="18" refY="10" orient="auto-start-reverse" markerUnits="userSpaceOnUse">
      <path d="M2 2L19 10L2 18Z" fill="#177b65" />
    </marker>
    <marker id="b-177b65" markerWidth="14" markerHeight="14" refX="12" refY="7" orient="auto-start-reverse" markerUnits="userSpaceOnUse">
      <path d="M2 2L13 7L2 12Z" fill="#177b65" />
    </marker>
    <marker id="a-97691f" markerWidth="20" markerHeight="20" refX="18" refY="10" orient="auto-start-reverse" markerUnits="userSpaceOnUse">
      <path d="M2 2L19 10L2 18Z" fill="#97691f" />
    </marker>
    <marker id="b-97691f" markerWidth="14" markerHeight="14" refX="12" refY="7" orient="auto-start-reverse" markerUnits="userSpaceOnUse">
      <path d="M2 2L13 7L2 12Z" fill="#97691f" />
    </marker>
    <marker id="a-70579c" markerWidth="20" markerHeight="20" refX="18" refY="10" orient="auto-start-reverse" markerUnits="userSpaceOnUse">
      <path d="M2 2L19 10L2 18Z" fill="#70579c" />
    </marker>
    <marker id="b-70579c" markerWidth="14" markerHeight="14" refX="12" refY="7" orient="auto-start-reverse" markerUnits="userSpaceOnUse">
      <path d="M2 2L13 7L2 12Z" fill="#70579c" />
    </marker>
    <marker id="a-bd5254" markerWidth="20" markerHeight="20" refX="18" refY="10" orient="auto-start-reverse" markerUnits="userSpaceOnUse">
      <path d="M2 2L19 10L2 18Z" fill="#bd5254" />
    </marker>
    <marker id="b-bd5254" markerWidth="14" markerHeight="14" refX="12" refY="7" orient="auto-start-reverse" markerUnits="userSpaceOnUse">
      <path d="M2 2L13 7L2 12Z" fill="#bd5254" />
    </marker>
    <marker id="a-536965" markerWidth="20" markerHeight="20" refX="18" refY="10" orient="auto-start-reverse" markerUnits="userSpaceOnUse">
      <path d="M2 2L19 10L2 18Z" fill="#536965" />
    </marker>
    <marker id="b-536965" markerWidth="14" markerHeight="14" refX="12" refY="7" orient="auto-start-reverse" markerUnits="userSpaceOnUse">
      <path d="M2 2L13 7L2 12Z" fill="#536965" />
    </marker>
  </defs>
  <rect x="0" y="0" width="1600" height="1020" fill="#fafcfb" data-graph-role="background" />
  <text x="64" y="44" fill="#177b65" font-size="18" font-weight="600" text-anchor="start">RAYAGENT ／ 系统组成</text>
  <text x="64" y="94" fill="#20312f" font-size="40" font-weight="650" text-anchor="start">系统架构</text>
  <rect x="470" y="126" width="620" height="112" rx="10" fill="#ffffff" stroke="#c6d5d0" stroke-width="2" data-graph-role="node" />
  <g transform="translate(494 142) scale(1.5)" fill="none" stroke="#20312f" stroke-width="2.4" stroke-linecap="round" stroke-linejoin="round" data-graph-role="decoration">
    <path d="M2 4H22V20H2Z" />
    <path d="M2 9H22" />
    <path d="M5 6.5H6" />
    <path d="M9 6.5H10" />
  </g>
  <text x="546" y="170" fill="#20312f" font-size="28" font-weight="600" text-anchor="start">Web 会话</text>
  <text x="494" y="204" fill="#536965" font-size="23" font-weight="400" text-anchor="start">计划与消息 · 工具记录 · 文件预览 · 沙箱画面</text>
  <rect x="470" y="262" width="620" height="524" rx="12" fill="#f1f6f3" stroke="#a9c9b4" stroke-width="2" data-graph-role="container" />
  <text x="494" y="296" fill="#177b65" font-size="24" font-weight="600" text-anchor="start">API 应用</text>
  <rect x="494" y="310" width="572" height="112" rx="10" fill="#ffffff" stroke="#c6d5d0" stroke-width="2" data-graph-role="node" />
  <g transform="translate(518 326) scale(1.5)" fill="none" stroke="#177b65" stroke-width="2.4" stroke-linecap="round" stroke-linejoin="round" data-graph-role="decoration">
    <path d="M16 6A4 4 0 1 1 8 6A4 4 0 1 1 16 6" />
    <path d="M3 22V19Q3 13 12 13Q21 13 21 19V22" />
  </g>
  <text x="570" y="354" fill="#20312f" font-size="28" font-weight="600" text-anchor="start">会话与应用协调</text>
  <text x="518" y="388" fill="#536965" font-size="21" font-weight="400" text-anchor="start">接收目标与控制请求，准备任务和执行资源</text>
  <rect x="494" y="466" width="572" height="140" rx="10" fill="#ffffff" stroke="#c6d5d0" stroke-width="2" data-graph-role="node" />
  <g transform="translate(518 482) scale(1.5)" fill="none" stroke="#177b65" stroke-width="2.4" stroke-linecap="round" stroke-linejoin="round" data-graph-role="decoration">
    <path d="M6 6H18V18H6Z" />
    <path d="M9 9H15V15H9Z" />
    <path d="M9 2V6M15 2V6M9 18V22M15 18V22M2 9H6M2 15H6M18 9H22M18 15H22" />
  </g>
  <text x="570" y="510" fill="#20312f" font-size="28" font-weight="600" text-anchor="start">任务运行</text>
  <text x="518" y="544" fill="#536965" font-size="21" font-weight="400" text-anchor="start">Plan + ReAct · 模型调用 · 工具调度</text>
  <text x="518" y="576" fill="#536965" font-size="21" font-weight="400" text-anchor="start">上下文与记忆 · 事件发布 · 文件同步</text>
  <rect x="494" y="650" width="572" height="112" rx="10" fill="#ffffff" stroke="#c6d5d0" stroke-width="2" data-graph-role="node" />
  <g transform="translate(518 666) scale(1.5)" fill="none" stroke="#177b65" stroke-width="2.4" stroke-linecap="round" stroke-linejoin="round" data-graph-role="decoration">
    <path d="M3 4H21V20H3Z" />
    <path d="M7 9L10 12L7 15" />
    <path d="M13 15H17" />
  </g>
  <text x="570" y="694" fill="#20312f" font-size="28" font-weight="600" text-anchor="start">工具适配</text>
  <text x="518" y="728" fill="#536965" font-size="21" font-weight="400" text-anchor="start">文件 · Shell · 浏览器 · 检索 · MCP · A2A</text>
  <rect x="64" y="284" width="300" height="502" rx="12" fill="#eef3fc" stroke="#bfcee8" stroke-width="2" data-graph-role="container" />
  <text x="88" y="326" fill="#3268bf" font-size="24" font-weight="600" text-anchor="start">状态与存储</text>
  <rect x="88" y="350" width="252" height="112" rx="10" fill="#ffffff" stroke="#c6d5d0" stroke-width="2" data-graph-role="node" />
  <g transform="translate(112 366) scale(1.5)" fill="none" stroke="#3268bf" stroke-width="2.4" stroke-linecap="round" stroke-linejoin="round" data-graph-role="decoration">
    <path d="M2 12H6L9 4L14 20L17 12H22" />
  </g>
  <text x="164" y="394" fill="#20312f" font-size="25" font-weight="600" text-anchor="start">Redis</text>
  <text x="112" y="428" fill="#536965" font-size="19" font-weight="400" text-anchor="start">输入消息 · 输出事件</text>
  <rect x="88" y="486" width="252" height="140" rx="10" fill="#ffffff" stroke="#c6d5d0" stroke-width="2" data-graph-role="node" />
  <g transform="translate(112 502) scale(1.5)" fill="none" stroke="#3268bf" stroke-width="2.4" stroke-linecap="round" stroke-linejoin="round" data-graph-role="decoration">
    <path d="M3 6C3 0 21 0 21 6C21 12 3 12 3 6Z" />
    <path d="M3 6V18C3 24 21 24 21 18V6" />
    <path d="M3 12C3 18 21 18 21 12" />
  </g>
  <text x="164" y="530" fill="#20312f" font-size="23" font-weight="600" text-anchor="start">PostgreSQL</text>
  <text x="112" y="564" fill="#536965" font-size="19" font-weight="400" text-anchor="start">会话状态 · 事件历史</text>
  <text x="112" y="596" fill="#536965" font-size="19" font-weight="400" text-anchor="start">记忆 · 文件元数据</text>
  <rect x="88" y="650" width="252" height="112" rx="10" fill="#ffffff" stroke="#c6d5d0" stroke-width="2" data-graph-role="node" />
  <g transform="translate(112 666) scale(1.5)" fill="none" stroke="#3268bf" stroke-width="2.4" stroke-linecap="round" stroke-linejoin="round" data-graph-role="decoration">
    <path d="M14 2H5V22H19V7Z" />
    <path d="M14 2V7H19" />
    <path d="M8 12H16" />
    <path d="M8 16H14" />
  </g>
  <text x="164" y="694" fill="#20312f" font-size="25" font-weight="600" text-anchor="start">文件存储</text>
  <text x="112" y="728" fill="#536965" font-size="19" font-weight="400" text-anchor="start">附件 · 执行文件 · 截图</text>
  <rect x="1216" y="470" width="240" height="112" rx="10" fill="#ffffff" stroke="#c6d5d0" stroke-width="2" data-graph-role="node" />
  <g transform="translate(1240 486) scale(1.5)" fill="none" stroke="#3268bf" stroke-width="2.4" stroke-linecap="round" stroke-linejoin="round" data-graph-role="decoration">
    <path d="M6 6H18V18H6Z" />
    <path d="M9 9H15V15H9Z" />
    <path d="M9 2V6M15 2V6M9 18V22M15 18V22M2 9H6M2 15H6M18 9H22M18 15H22" />
  </g>
  <text x="1292" y="514" fill="#20312f" font-size="25" font-weight="600" text-anchor="start">模型服务</text>
  <text x="1240" y="548" fill="#536965" font-size="19" font-weight="400" text-anchor="start">请求上下文，返回决策</text>
  <rect x="1216" y="606" width="240" height="124" rx="10" fill="#ffffff" stroke="#c6d5d0" stroke-width="2" data-graph-role="node" />
  <g transform="translate(1240 622) scale(1.5)" fill="none" stroke="#70579c" stroke-width="2.4" stroke-linecap="round" stroke-linejoin="round" data-graph-role="decoration">
    <path d="M3 7L12 2L21 7L12 12Z" />
    <path d="M3 7V18L12 23L21 18V7" />
    <path d="M12 12V23" />
  </g>
  <text x="1292" y="650" fill="#20312f" font-size="25" font-weight="600" text-anchor="start">沙箱环境</text>
  <text x="1240" y="684" fill="#536965" font-size="19" font-weight="400" text-anchor="start">文件、终端与进程</text>
  <text x="1240" y="716" fill="#536965" font-size="19" font-weight="400" text-anchor="start">浏览器与 VNC 画面</text>
  <rect x="1216" y="754" width="240" height="112" rx="10" fill="#ffffff" stroke="#c6d5d0" stroke-width="2" data-graph-role="node" />
  <g transform="translate(1240 770) scale(1.5)" fill="none" stroke="#bd5254" stroke-width="2.4" stroke-linecap="round" stroke-linejoin="round" data-graph-role="decoration">
    <path d="M12 5V11M4 11H20M4 11V17M20 11V17" />
    <path d="M9 1H15V5H9Z" />
    <path d="M1 17H7V22H1Z" />
    <path d="M17 17H23V22H17Z" />
  </g>
  <text x="1292" y="798" fill="#20312f" font-size="25" font-weight="600" text-anchor="start">外部服务</text>
  <text x="1240" y="832" fill="#536965" font-size="19" font-weight="400" text-anchor="start">搜索 / MCP / A2A</text>
  <path d="M700 238 L700 310" fill="none" stroke="#3268bf" stroke-width="5" stroke-linejoin="round" marker-end="url(#a-3268bf)" data-graph-role="edge" />
  <text x="714" y="282" fill="#3268bf" font-size="20" font-weight="600" text-anchor="start">网关 · HTTP</text>
  <path d="M900 310 L900 238" fill="none" stroke="#177b65" stroke-width="5" stroke-linejoin="round" marker-end="url(#a-177b65)" data-graph-role="edge" />
  <text x="914" y="282" fill="#177b65" font-size="20" font-weight="600" text-anchor="start">SSE 事件</text>
  <path d="M780 422 L780 466" fill="none" stroke="#3268bf" stroke-width="5" stroke-linejoin="round" marker-end="url(#a-3268bf)" data-graph-role="edge" />
  <text x="804" y="452" fill="#3268bf" font-size="20" font-weight="600" text-anchor="start">启动 / 控制</text>
  <path d="M780 606 L780 650" fill="none" stroke="#3268bf" stroke-width="5" stroke-linejoin="round" marker-end="url(#a-3268bf)" data-graph-role="edge" />
  <text x="804" y="636" fill="#3268bf" font-size="20" font-weight="600" text-anchor="start">动作 / 结果</text>
  <path d="M494 366 L436 366 L436 400 L364 400" fill="none" stroke="#3268bf" stroke-width="4" stroke-linejoin="round" marker-end="url(#b-3268bf)" data-graph-role="edge" />
  <path d="M436 400 L436 520 L364 520" fill="none" stroke="#3268bf" stroke-width="4" stroke-linejoin="round" marker-end="url(#b-3268bf)" data-graph-role="edge" />
  <path d="M494 560 L364 560" fill="none" stroke="#177b65" stroke-width="4" stroke-linejoin="round" marker-end="url(#b-177b65)" data-graph-role="edge" />
  <path d="M400 560 L400 440 L364 440" fill="none" stroke="#177b65" stroke-width="4" stroke-linejoin="round" marker-end="url(#b-177b65)" data-graph-role="edge" />
  <path d="M400 560 L400 700 L364 700" fill="none" stroke="#177b65" stroke-width="4" stroke-linejoin="round" marker-end="url(#b-177b65)" data-graph-role="edge" />
  <path d="M1090 526 L1216 526" fill="none" stroke="#3268bf" stroke-width="4" stroke-linejoin="round" marker-end="url(#b-3268bf)" data-graph-role="edge" />
  <text x="1098" y="512" fill="#536965" font-size="18" font-weight="400" text-anchor="start">请求／响应</text>
  <path d="M1090 680 L1216 680" fill="none" stroke="#70579c" stroke-width="4" stroke-linejoin="round" marker-end="url(#b-70579c)" data-graph-role="edge" />
  <text x="1098" y="666" fill="#536965" font-size="18" font-weight="400" text-anchor="start">HTTP / CDP</text>
  <path d="M1090 740 L1168 740 L1168 810 L1216 810" fill="none" stroke="#bd5254" stroke-width="4" stroke-linejoin="round" marker-end="url(#b-bd5254)" data-graph-role="edge" />
  <text x="1098" y="726" fill="#536965" font-size="18" font-weight="400" text-anchor="start">MCP / A2A</text>
  <path d="M1090 182 L1504 182 L1504 640 L1456 640" fill="none" stroke="#536965" stroke-width="3" stroke-dasharray="10 7" stroke-linejoin="round" marker-end="url(#b-536965)" marker-start="url(#b-536965)" data-graph-role="edge" />
  <text x="1094" y="168" fill="#536965" font-size="18" font-weight="400" text-anchor="start">沙箱画面（不经工具层）</text>
  <path d="M64 910 L1536 910" fill="none" stroke="#c6d5d0" stroke-width="2" data-graph-role="decoration" />
  <text x="64" y="948" fill="#536965" font-size="20" font-weight="400" text-anchor="start">蓝：请求与调度　　绿：持久化与事件回传　　紫：沙箱操作　　红：外部协议　　灰虚线：画面转发</text>
  <text x="64" y="984" fill="#536965" font-size="22" font-weight="400" text-anchor="start">箭头指向被调用方，表示谁发起，结果沿同一条边返回；三处存储各自标注了写入内容。这些操作不在同一个事务里完成。</text>
</svg>
